<svg width="187" height="224" viewBox="0 0 187 224" fill="none" xmlns="http://www.w3.org/2000/svg">
<path d="M110.58 223.817C53.4656 223.817 7.16545 177.517 7.16545 120.402C7.16545 63.288 53.4656 16.9875 110.58 16.9875C167.695 16.9875 184.015 63.288 184.015 120.402C184.015 177.517 167.695 223.817 110.58 223.817Z" fill="#FFD8D8"/>
<path d="M20.0343 115.199C67.5971 139.062 147.612 91.0522 174.242 81.1092C179.66 81.1092 182.163 98.1543 183.558 108.807C191.011 83.2399 180.453 51.3547 174.242 39.6734C110.329 -31.9157 44.8066 9.84463 20.0343 39.6734C-14.1514 80.5815 3.45636 140.183 17.7004 166.461C5.80972 137.485 10.1254 124.432 20.0343 115.199Z" fill="#2F2E41"/>
<circle cx="109.828" cy="137.015" r="8.42137" fill="#B9A57F"/>
<circle cx="163.671" cy="133.906" r="8.42" fill="#B9A57F"/>
<path d="M88.6993 164.356H164.489L158.659 172.777" stroke="#C69494" stroke-width="2"/>
<path d="M143.436 143.303C151.287 147.196 152.863 150.227 147.647 158.04" stroke="#C69494" stroke-width="2"/>
</svg>
