<svg width="190" height="96" viewBox="0 0 190 96" fill="none" xmlns="http://www.w3.org/2000/svg">
<g id="about">
<g id="Group 1">
<rect id="rectangle-back" x="0.836304" y="36.4588" width="180" height="60" transform="rotate(-11.4473 0.836304 36.4588)" fill="#494949"/>
<rect id="rectangle-front" x="5" y="18" width="180" height="60" fill="#1D2B39"/>
<path id="About" d="M62.1094 26.0078C62.4844 26.0078 62.8281 26.1641 63.1406 26.4766C63.4531 26.7891 63.6953 27.4453 63.8672 28.4453C64.0547 29.4297 64.3281 30.8438 64.6875 32.6875C65.0625 34.5312 65.4766 36.5 65.9297 38.5938C66.3828 40.6875 66.8594 42.8516 67.3594 45.0859C67.8594 47.3047 68.3594 49.4609 68.8594 51.5547C70.0625 56.4609 71 60.0469 71.6719 62.3125C71.8281 62.8906 71.7812 63.3516 71.5312 63.6953C71.2969 64.0391 71.0312 64.2109 70.7344 64.2109C70.4375 64.2109 70.1641 64.125 69.9141 63.9531C69.6797 63.7812 69.4688 63.2734 69.2812 62.4297C69.0938 61.5859 68.7891 60.2188 68.3672 58.3281C67.9453 56.4375 67.4922 54.4062 67.0078 52.2344C66.9922 52.1406 66.9766 52.0547 66.9609 51.9766C65.8984 51.9297 64.3984 51.9062 62.4609 51.9062C60.1797 51.9062 58.4375 51.9375 57.2344 52C57.2188 52.0938 57.2031 52.1875 57.1875 52.2812C56.2344 56.875 55.5312 60.4297 55.0781 62.9453C54.9219 63.7422 54.5078 64.1406 53.8359 64.1406C53.1328 64.1406 52.7031 63.7969 52.5469 63.1094C52.5 62.9062 52.5469 62.5859 52.6875 62.1484C52.8281 61.7109 53.0312 60.9609 53.2969 59.8984C53.5781 58.8203 53.875 57.5938 54.1875 56.2188C54.5156 54.8281 54.8594 53.3125 55.2188 51.6719C55.5781 50.0312 55.9453 48.3438 56.3203 46.6094C56.6953 44.875 57.0703 43.1328 57.4453 41.3828C57.8203 39.6172 58.1797 37.9141 58.5234 36.2734C58.8672 34.6328 59.1875 33.0938 59.4844 31.6562C59.7969 30.2188 60.0469 29.0781 60.2344 28.2344C60.5312 26.75 61.1562 26.0078 62.1094 26.0078ZM57.6797 49.8203C58.8672 49.8828 60.4688 49.9141 62.4844 49.9141C64.1562 49.9141 65.4922 49.8906 66.4922 49.8438C66.1641 48.4219 65.8359 46.9609 65.5078 45.4609C64.9922 43.1328 64.5 40.875 64.0312 38.6875C63.25 35.1094 62.5781 31.9688 62.0156 29.2656C61.6562 31.0625 61.1406 33.5078 60.4688 36.6016C59.5938 40.7266 58.9297 43.8672 58.4766 46.0234C58.2109 47.3203 57.9453 48.5859 57.6797 49.8203ZM76.0547 63.1328L76.2656 42.8594V39.8125C76.2656 38.8281 76.2578 37.8672 76.2422 36.9297C76.2266 35.9922 76.2109 35.0547 76.1953 34.1172C76.1797 33.1797 76.1562 32.2109 76.125 31.2109C76.0312 29.0391 75.9453 27.2969 75.8672 25.9844C75.7891 24.6562 75.7891 23.8828 75.8672 23.6641C75.9609 23.4453 76.0781 23.2734 76.2188 23.1484C76.4375 22.9297 76.7656 22.8203 77.2031 22.8203C77.9688 22.8203 78.3516 23.4688 78.3516 24.7656L78.2344 34.5859V39.2969C78.2344 40.25 78.2266 41.2578 78.2109 42.3203C78.2109 43.3828 78.2188 44.4453 78.2344 45.5078C78.25 47.7266 78.2578 49.3672 78.2578 50.4297C78.7422 49.2109 79.4375 48.1719 80.3438 47.3125C81.4844 46.2031 82.6797 45.6484 83.9297 45.6484C86.3047 45.6484 87.8594 46.8594 88.5938 49.2812C88.8281 50.0625 88.9453 51.0078 88.9453 52.1172C88.9453 53.2109 88.7812 54.3047 88.4531 55.3984C88.1406 56.4922 87.7109 57.5 87.1641 58.4219C86.6172 59.3281 85.9766 60.1484 85.2422 60.8828C84.5078 61.6016 83.7344 62.2188 82.9219 62.7344C80.8906 64.0312 78.9844 64.6172 77.2031 64.4922C76.4375 64.4297 76.0547 63.9766 76.0547 63.1328ZM80.0625 50.2422C79.5625 50.8672 79.1484 51.5469 78.8203 52.2812C78.5078 53.0156 78.3281 53.7031 78.2812 54.3438C78.25 54.9688 78.2266 55.5156 78.2109 55.9844C78.1953 56.4375 78.1797 56.8203 78.1641 57.1328C78.1641 57.4453 78.1641 57.7031 78.1641 57.9062V58.4453C78.1641 58.8359 78.1953 60.2188 78.2578 62.5938C78.9609 62.625 79.7188 62.4219 80.5312 61.9844C81.5469 61.4531 82.3906 60.9062 83.0625 60.3438C83.75 59.7812 84.3672 59.1016 84.9141 58.3047C86.1641 56.4766 86.7891 54.4062 86.7891 52.0938C86.7891 50.7188 86.5234 49.7031 85.9922 49.0469C85.4609 48.3906 84.7969 48.0625 84 48.0625C83.2188 48.0625 82.4922 48.2734 81.8203 48.6953C81.1641 49.1016 80.5781 49.6172 80.0625 50.2422ZM100.969 48.2266C100.453 47.8516 99.8438 47.6641 99.1406 47.6641C98.4531 47.6641 97.8203 47.8594 97.2422 48.25C96.6797 48.625 96.2031 49.1562 95.8125 49.8438C95.0156 51.2188 94.6172 53.1094 94.6172 55.5156C94.6172 57.9062 95 59.6719 95.7656 60.8125C96.5312 61.9531 97.5547 62.5234 98.8359 62.5234C100.242 62.5234 101.367 61.7188 102.211 60.1094C102.961 58.6719 103.336 56.9062 103.336 54.8125C103.336 51.5938 102.547 49.3984 100.969 48.2266ZM98.8125 64.5156C97.9219 64.5312 97.0859 64.3516 96.3047 63.9766C95.5391 63.5859 94.875 62.9844 94.3125 62.1719C93.0781 60.4531 92.4609 58.0078 92.4609 54.8359C92.4609 51.9922 93.125 49.75 94.4531 48.1094C95.7031 46.5469 97.3594 45.7656 99.4219 45.7656C101.156 45.7656 102.594 46.5156 103.734 48.0156C104.906 49.6094 105.492 51.7969 105.492 54.5781C105.492 57.6719 104.812 60.1406 103.453 61.9844C102.234 63.6406 100.688 64.4844 98.8125 64.5156ZM112.336 58.2812C112.336 61.0625 113.375 62.4531 115.453 62.4531C116.641 62.4531 117.656 61.8594 118.5 60.6719C119.25 59.6094 119.695 58.3438 119.836 56.875C119.883 55.5 119.906 54.2344 119.906 53.0781C119.906 51.4219 119.891 49.75 119.859 48.0625C119.828 47.5469 119.961 47.1562 120.258 46.8906C120.555 46.625 120.859 46.4922 121.172 46.4922C121.5 46.4922 121.789 46.6172 122.039 46.8672C122.289 47.1016 122.383 47.4531 122.32 47.9219C122.039 50.9375 121.898 53.8516 121.898 56.6641C121.898 59.4609 121.938 61.0234 122.016 61.3516C122.094 61.6797 122.188 61.9531 122.297 62.1719C122.547 62.7344 122.672 63.1484 122.672 63.4141C122.672 63.6641 122.57 63.8984 122.367 64.1172C122.18 64.3516 121.914 64.4688 121.57 64.4688C120.398 64.4688 119.828 63.3984 119.859 61.2578C119.328 62.2266 118.836 62.8984 118.383 63.2734C116.836 64.5547 115.141 64.8594 113.297 64.1875C111.234 63.4062 110.203 61.3672 110.203 58.0703C110.203 56.3516 110.188 54.6562 110.156 52.9844C110.141 51.3125 110.141 49.6719 110.156 48.0625C110.172 47.5469 110.312 47.1641 110.578 46.9141C110.859 46.6484 111.156 46.5156 111.469 46.5156C111.797 46.5156 112.094 46.6328 112.359 46.8672C112.625 47.1016 112.719 47.5 112.641 48.0625C112.578 48.625 112.523 49.3594 112.477 50.2656C112.445 51.1719 112.422 52.1016 112.406 53.0547C112.359 54.6484 112.336 56.3906 112.336 58.2812ZM128.461 41.7812C128.461 41.2344 128.594 40.8281 128.859 40.5625C129.125 40.2969 129.414 40.1641 129.727 40.1641C130.039 40.1641 130.32 40.2969 130.57 40.5625C130.82 40.8281 130.914 41.2344 130.852 41.7812C130.711 43.2344 130.625 44.9219 130.594 46.8438C131.875 46.8438 132.844 46.8047 133.5 46.7266C134.156 46.6484 134.625 46.6094 134.906 46.6094C135.969 46.5781 136.5 46.9688 136.5 47.7812C136.5 48.25 136.227 48.5781 135.68 48.7656C135.492 48.8281 135.273 48.8516 135.023 48.8359C134.773 48.8203 134.5 48.8125 134.203 48.8125C133.922 48.7969 133.641 48.7891 133.359 48.7891C132.875 48.7891 132.406 48.7891 131.953 48.7891C131.516 48.7891 131.125 48.7969 130.781 48.8125C130.719 48.8125 130.648 48.8125 130.57 48.8125C130.57 48.8438 130.57 48.8672 130.57 48.8828C130.57 55.3516 130.664 59 130.852 59.8281C131.039 60.6562 131.242 61.25 131.461 61.6094C131.852 62.2344 132.352 62.5469 132.961 62.5469C133.945 62.5469 134.609 62.0625 134.953 61.0938C135.094 60.3125 135.492 59.9219 136.148 59.9219C136.383 59.9219 136.586 60.0234 136.758 60.2266C136.945 60.4141 137.039 60.6953 137.039 61.0703C137.039 61.4453 136.922 61.8516 136.688 62.2891C136.453 62.7266 136.141 63.1094 135.75 63.4375C134.891 64.1562 133.93 64.5156 132.867 64.5156C130.93 64.5156 129.594 63.4453 128.859 61.3047C128.594 60.5234 128.461 59.5625 128.461 58.4219V48.9766C128.133 48.9922 127.773 49.0156 127.383 49.0469C126.898 49.0625 126.531 48.9453 126.281 48.6953C126.047 48.4297 125.93 48.1562 125.93 47.875C125.93 47.5781 126.055 47.3203 126.305 47.1016C126.555 46.8672 126.93 46.75 127.43 46.75L128.461 46.7734V41.7812Z" fill="white"/>
</g>
</g>
</svg>
